<svg width="11" height="9" viewBox="0 0 11 9" fill="none" xmlns="http://www.w3.org/2000/svg">
<path d="M3.50393 6.175L9.28663 0.275C9.46632 0.0916663 9.69501 0 9.97271 0C10.2504 0 10.4791 0.0916663 10.6588 0.275C10.8385 0.458333 10.9283 0.691666 10.9283 0.974999C10.9283 1.25833 10.8385 1.49167 10.6588 1.675L4.19001 8.275C3.99399 8.475 3.76529 8.575 3.50393 8.575C3.24256 8.575 3.01387 8.475 2.81784 8.275L0.269532 5.675C0.0898439 5.49167 0 5.25833 0 4.975C0 4.69167 0.0898439 4.45833 0.269532 4.275C0.449221 4.09167 0.677916 4 0.955616 4C1.23332 4 1.46201 4.09167 1.6417 4.275L3.50393 6.175Z" fill="white"/>
</svg>
