<svg width="25" height="17" viewBox="0 0 25 17" fill="none" xmlns="http://www.w3.org/2000/svg">
<path d="M24.9312 8.1625C24.9008 8.07812 24.0375 6.09531 22.1281 4.10195C19.5789 1.46523 16.3593 0.0625 12.8148 0.0625C9.27028 0.0625 6.05075 1.46523 3.50153 4.10195C1.59216 6.09531 0.728877 8.07812 0.698409 8.1625C0.653064 8.26879 0.629639 8.38375 0.629639 8.5C0.629639 8.61625 0.653064 8.73121 0.698409 8.8375C0.728877 8.92188 1.59216 10.9047 3.50153 12.898C6.05075 15.5348 9.27028 16.9375 12.8148 16.9375C16.3593 16.9375 19.5789 15.5348 22.1281 12.898C24.0375 10.9047 24.9008 8.92188 24.9312 8.8375C24.9766 8.73121 25 8.61625 25 8.5C25 8.38375 24.9766 8.26879 24.9312 8.1625ZM12.8148 15.25C9.68669 15.25 6.95466 14.0687 4.69997 11.7379C3.76817 10.7849 2.97754 9.69375 2.35388 8.5C2.9767 7.30252 3.76736 6.20776 4.69997 5.25156C6.95466 2.93125 9.68669 1.75 12.8148 1.75C15.9429 1.75 18.675 2.93125 20.9297 5.25156C21.8623 6.20776 22.6529 7.30252 23.2758 8.5C22.5445 9.92383 19.3554 15.25 12.8148 15.25ZM12.8148 3.4375C11.8506 3.4375 10.9081 3.73441 10.1064 4.29069C9.30472 4.84696 8.67988 5.63761 8.3109 6.56266C7.94193 7.48772 7.84538 8.50562 8.03349 9.48764C8.22159 10.4697 8.68589 11.3717 9.36767 12.0797C10.0495 12.7877 10.9181 13.2699 11.8637 13.4652C12.8094 13.6606 13.7896 13.5603 14.6804 13.1771C15.5712 12.794 16.3326 12.1451 16.8682 11.3126C17.4039 10.4801 17.6898 9.50127 17.6898 8.5C17.6898 7.15734 17.1762 5.86968 16.262 4.92027C15.3477 3.97087 14.1077 3.4375 12.8148 3.4375ZM12.8148 11.875C12.172 11.875 11.5437 11.6771 11.0092 11.3062C10.4748 10.9354 10.0582 10.4083 9.81221 9.79156C9.56622 9.17486 9.50186 8.49626 9.62726 7.84157C9.75266 7.18688 10.0622 6.58552 10.5167 6.11351C10.9712 5.64151 11.5503 5.32007 12.1808 5.18985C12.8112 5.05962 13.4647 5.12646 14.0585 5.38191C14.6524 5.63735 15.16 6.06993 15.5171 6.62495C15.8742 7.17997 16.0648 7.83249 16.0648 8.5C16.0621 9.39425 15.7189 10.2511 15.11 10.8834C14.501 11.5157 13.6759 11.8722 12.8148 11.875Z" fill="#4F4F4F"/>
</svg>
