<svg width="21" height="21" viewBox="0 0 21 21" fill="none" xmlns="http://www.w3.org/2000/svg">
<path d="M10.5 4.6875C12.1089 4.68215 13.6866 5.13094 15.0519 5.98226C16.4171 6.83359 17.5143 8.05289 18.2175 9.5C16.7737 12.4487 13.825 14.3125 10.5 14.3125C7.175 14.3125 4.22625 12.4487 2.7825 9.5C3.48567 8.05289 4.58293 6.83359 5.94814 5.98226C7.31336 5.13094 8.89111 4.68215 10.5 4.6875M10.5 2.9375C6.125 2.9375 2.38875 5.65875 0.875 9.5C2.38875 13.3412 6.125 16.0625 10.5 16.0625C14.875 16.0625 18.6112 13.3412 20.125 9.5C18.6112 5.65875 14.875 2.9375 10.5 2.9375ZM10.5 7.3125C11.0802 7.3125 11.6366 7.54297 12.0468 7.9532C12.457 8.36344 12.6875 8.91984 12.6875 9.5C12.6875 10.0802 12.457 10.6366 12.0468 11.0468C11.6366 11.457 11.0802 11.6875 10.5 11.6875C9.91984 11.6875 9.36344 11.457 8.9532 11.0468C8.54297 10.6366 8.3125 10.0802 8.3125 9.5C8.3125 8.91984 8.54297 8.36344 8.9532 7.9532C9.36344 7.54297 9.91984 7.3125 10.5 7.3125M10.5 5.5625C8.33 5.5625 6.5625 7.33 6.5625 9.5C6.5625 11.67 8.33 13.4375 10.5 13.4375C12.67 13.4375 14.4375 11.67 14.4375 9.5C14.4375 7.33 12.67 5.5625 10.5 5.5625Z" fill="#4F4F4F"/>
</svg>
