<svg width="25" height="21" viewBox="0 0 25 21" fill="none" xmlns="http://www.w3.org/2000/svg">
<path d="M5.28969 1.00768C5.1429 0.854108 4.9418 0.764138 4.72947 0.757045C4.51715 0.749953 4.31049 0.826301 4.15378 0.969733C3.99707 1.11317 3.90277 1.31227 3.89108 1.52439C3.87939 1.73651 3.95125 1.94477 4.09125 2.10455L6.04125 4.24752C2.35453 6.51237 0.770158 10.0061 0.699064 10.1686C0.65407 10.2728 0.630859 10.3852 0.630859 10.4987C0.630859 10.6122 0.65407 10.7245 0.699064 10.8288C0.729533 10.8999 1.59281 12.8092 3.50219 14.7288C6.05141 17.2678 9.27094 18.6186 12.8155 18.6186C14.6365 18.6259 16.4388 18.2522 18.1069 17.5217L20.3413 19.9796C20.4173 20.0627 20.5099 20.1292 20.6131 20.1746C20.7162 20.2201 20.8277 20.2436 20.9405 20.2436C21.1431 20.2416 21.3381 20.1658 21.4889 20.0303C21.5688 19.959 21.6336 19.8725 21.6795 19.7758C21.7254 19.6791 21.7515 19.5742 21.7562 19.4672C21.7609 19.3603 21.7442 19.2534 21.707 19.1531C21.6698 19.0527 21.6129 18.9607 21.5397 18.8827L5.28969 1.00768ZM10.0936 8.71627L14.3288 13.3678C13.8629 13.6156 13.3431 13.7447 12.8155 13.7436C12.2297 13.7438 11.6548 13.5856 11.1516 13.2859C10.6483 12.9862 10.2354 12.5561 9.95654 12.041C9.67766 11.5259 9.54317 10.945 9.5673 10.3598C9.59142 9.77451 9.77327 9.20666 10.0936 8.71627ZM12.8155 16.9936C9.68735 16.9936 6.95531 15.8561 4.70063 13.6116C3.76653 12.6959 2.97563 11.6448 2.35453 10.4936C2.83188 9.59987 4.36547 7.09127 7.15844 5.47643L8.98656 7.48737C8.2819 8.3936 7.91964 9.51943 7.9636 10.6665C8.00756 11.8137 8.45492 12.9085 9.22688 13.7581C9.99884 14.6078 11.0459 15.1577 12.1835 15.3111C13.3212 15.4645 14.4765 15.2116 15.4459 14.5967L16.9389 16.2421C15.6228 16.7456 14.2246 17.0004 12.8155 16.9936ZM24.9319 10.8288C24.8913 10.9202 23.8655 13.1952 21.5397 15.2772C21.3906 15.4075 21.1994 15.4796 21.0014 15.4803C20.8875 15.4817 20.7747 15.4578 20.6711 15.4104C20.5675 15.363 20.4756 15.2932 20.4022 15.2061C20.3308 15.1268 20.2758 15.0341 20.2402 14.9335C20.2046 14.8329 20.1892 14.7262 20.1949 14.6197C20.2006 14.5131 20.2272 14.4087 20.2732 14.3124C20.3192 14.2161 20.3838 14.1298 20.4631 14.0585C21.5983 13.0402 22.5499 11.8343 23.2764 10.4936C22.6536 9.34049 21.8629 8.28627 20.9303 7.36549C18.6756 5.13112 15.9436 3.99362 12.8155 3.99362C12.1552 3.99096 11.496 4.04533 10.8452 4.15612C10.6327 4.18857 10.416 4.1366 10.2414 4.01133C10.0668 3.88606 9.94812 3.69744 9.91078 3.4858C9.89336 3.38043 9.89688 3.27265 9.92115 3.16864C9.94541 3.06463 9.98995 2.96642 10.0522 2.87964C10.1145 2.79285 10.1932 2.71919 10.284 2.66288C10.3747 2.60656 10.4757 2.56869 10.5811 2.55143C11.3195 2.4284 12.0669 2.36725 12.8155 2.36862C16.36 2.36862 19.5795 3.7194 22.1288 6.25846C24.0381 8.17799 24.9014 10.0874 24.9319 10.1686C24.9769 10.2728 25.0001 10.3852 25.0001 10.4987C25.0001 10.6122 24.9769 10.7245 24.9319 10.8288ZM13.4248 7.30455C13.3195 7.28455 13.2191 7.24398 13.1294 7.18518C13.0397 7.12637 12.9625 7.05048 12.9021 6.96183C12.7802 6.78279 12.7344 6.56266 12.7748 6.34987C12.8152 6.13707 12.9385 5.94904 13.1176 5.82714C13.2966 5.70525 13.5167 5.65946 13.7295 5.69987C14.7656 5.90249 15.7086 6.43391 16.4185 7.2152C17.1284 7.99648 17.5674 8.98594 17.6702 10.0366C17.69 10.2506 17.6241 10.4638 17.4871 10.6294C17.35 10.795 17.1529 10.8996 16.9389 10.9202H16.8577C16.6566 10.921 16.4626 10.8463 16.314 10.7108C16.1655 10.5754 16.0731 10.3892 16.0553 10.1889C15.9852 9.48924 15.6915 8.83078 15.2177 8.31121C14.7438 7.79164 14.1151 7.43863 13.4248 7.30455Z" fill="#4F4F4F"/>
</svg>
