<svg width="24" height="24" viewBox="0 0 24 24" fill="none" xmlns="http://www.w3.org/2000/svg">
<path fill-rule="evenodd" clip-rule="evenodd" d="M12 5.98265C11.5519 5.36497 10.9762 4.86495 10.3173 4.52118C9.65842 4.17742 8.93402 3.9991 8.2 4C5.348 4 3 6.49479 3 9.52508C3 11.0827 3.606 12.5214 4.493 13.4638L11.293 20.6889C11.4805 20.8881 11.7348 21 12 21C12.2652 21 12.5195 20.8881 12.707 20.6889L19.507 13.4638C19.5229 13.447 19.5382 13.4297 19.553 13.4118C20.37 12.4194 21 11.1188 21 9.52508C21 6.49479 18.652 4 15.8 4C14.253 4 12.878 4.77564 12 5.98265Z" fill="#F47932"/>
</svg>
