<svg width="24" height="24" viewBox="0 0 24 24" fill="none" xmlns="http://www.w3.org/2000/svg">
<path d="M8.34991 3.00003C9.52991 2.83003 10.7799 4.12003 11.1399 5.90003C11.4999 7.67003 10.8499 9.25003 9.66991 9.43003C8.49991 9.61003 7.23991 8.32003 6.86991 6.54003C6.49991 4.77003 7.16991 3.19003 8.34991 3.00003ZM15.4999 3.00003C16.6899 3.19003 17.3499 4.77003 16.9999 6.54003C16.6199 8.32003 15.3699 9.61003 14.1899 9.43003C12.9999 9.25003 12.3499 7.67003 12.7199 5.90003C13.0799 4.12003 14.3299 2.83003 15.4999 3.00003ZM2.99991 7.60003C4.13991 7.11003 5.68991 8.00003 6.49991 9.55003C7.25991 11.13 6.99991 12.79 5.86991 13.28C4.73991 13.77 3.19991 12.89 2.40991 11.32C1.61991 9.75003 1.89991 8.08003 2.99991 7.60003ZM20.9999 7.60003C22.0999 8.08003 22.3799 9.75003 21.5899 11.32C20.7999 12.89 19.2599 13.77 18.1299 13.28C16.9999 12.79 16.7399 11.13 17.4999 9.55003C18.3099 8.00003 19.8599 7.11003 20.9999 7.60003ZM19.3299 18.38C19.3699 19.32 18.6499 20.36 17.7899 20.75C15.9999 21.57 13.8799 19.87 11.8899 19.87C9.89991 19.87 7.75991 21.64 5.99991 20.75C4.99991 20.26 4.30991 18.96 4.43991 17.88C4.61991 16.39 6.40991 15.59 7.46991 14.5C8.87991 13.09 9.87991 10.44 11.8899 10.44C13.8899 10.44 14.9499 13.05 16.2999 14.5C17.4099 15.72 19.2599 16.75 19.3299 18.38Z" fill="#F47932"/>
</svg>
