<svg width="24" height="24" viewBox="0 0 24 24" fill="none" xmlns="http://www.w3.org/2000/svg">
<path d="M11.595 14.9415C11.67 15.1243 11.805 15.2156 12 15.2156C12.195 15.2156 12.33 15.1243 12.405 14.9415L13.395 12.7258L15.5775 11.7207C15.7575 11.6446 15.8475 11.5075 15.8475 11.3096C15.8475 11.1116 15.7575 10.9746 15.5775 10.8984L13.395 9.89335L12.405 7.67763C12.33 7.49489 12.195 7.40352 12 7.40352C11.805 7.40352 11.67 7.49489 11.595 7.67763L10.605 9.89335L8.4225 10.8984C8.2425 10.9746 8.1525 11.1116 8.1525 11.3096C8.1525 11.5075 8.2425 11.6446 8.4225 11.7207L10.605 12.7258L11.595 14.9415ZM3 20.0582V5.82739C3 5.32486 3.1764 4.89451 3.5292 4.53634C3.8814 4.17878 4.305 4 4.8 4H19.2C19.695 4 20.1189 4.17878 20.4717 4.53634C20.8239 4.89451 21 5.32486 21 5.82739V16.7918C21 17.2943 20.8239 17.7246 20.4717 18.0828C20.1189 18.4404 19.695 18.6192 19.2 18.6192H6.6L4.53 20.7207C4.245 21.01 3.9186 21.0746 3.5508 20.9144C3.1836 20.7548 3 20.4694 3 20.0582Z" fill="#F47932"/>
</svg>
