<svg width="24" height="24" viewBox="0 0 24 24" fill="none" xmlns="http://www.w3.org/2000/svg">
<path d="M11 17H13L13.3 15.5C13.5 15.4167 13.6877 15.3293 13.863 15.238C14.0377 15.146 14.2167 15.0333 14.4 14.9L15.85 15.35L16.85 13.65L15.7 12.65C15.7333 12.4167 15.75 12.2 15.75 12C15.75 11.8 15.7333 11.5833 15.7 11.35L16.85 10.35L15.85 8.65L14.4 9.1C14.2167 8.96667 14.0377 8.854 13.863 8.762C13.6877 8.67067 13.5 8.58333 13.3 8.5L13 7H11L10.7 8.5C10.5 8.58333 10.3123 8.67067 10.137 8.762C9.96233 8.854 9.78333 8.96667 9.6 9.1L8.15 8.65L7.15 10.35L8.3 11.35C8.26667 11.5833 8.25 11.8 8.25 12C8.25 12.2 8.26667 12.4167 8.3 12.65L7.15 13.65L8.15 15.35L9.6 14.9C9.78333 15.0333 9.96233 15.146 10.137 15.238C10.3123 15.3293 10.5 15.4167 10.7 15.5L11 17ZM12 14C11.45 14 10.9793 13.804 10.588 13.412C10.196 13.0207 10 12.55 10 12C10 11.45 10.196 10.979 10.588 10.587C10.9793 10.1957 11.45 10 12 10C12.55 10 13.021 10.1957 13.413 10.587C13.8043 10.979 14 11.45 14 12C14 12.55 13.8043 13.0207 13.413 13.412C13.021 13.804 12.55 14 12 14ZM5 21C4.45 21 3.979 20.8043 3.587 20.413C3.19567 20.021 3 19.55 3 19V5C3 4.45 3.19567 3.979 3.587 3.587C3.979 3.19567 4.45 3 5 3H19C19.55 3 20.021 3.19567 20.413 3.587C20.8043 3.979 21 4.45 21 5V19C21 19.55 20.8043 20.021 20.413 20.413C20.021 20.8043 19.55 21 19 21H5Z" fill="#F47932"/>
</svg>
