<svg width="24" height="24" viewBox="0 0 24 24" fill="none" xmlns="http://www.w3.org/2000/svg">
<path d="M7.06445 14.0899L5.72344 19.8956C5.68191 20.0714 5.69438 20.2556 5.75921 20.4242C5.82404 20.5928 5.93822 20.738 6.08683 20.8407C6.23545 20.9434 6.41159 20.9989 6.59226 21C6.77293 21.0011 6.94972 20.9476 7.09955 20.8467L12.0001 17.5803L16.9006 20.8467C17.0539 20.9485 17.2347 21.0008 17.4187 20.9968C17.6026 20.9928 17.781 20.9325 17.9297 20.8241C18.0784 20.7157 18.1903 20.5644 18.2504 20.3905C18.3105 20.2167 18.3159 20.0285 18.2659 19.8515L16.6198 14.0926L20.7022 10.4195C20.833 10.3018 20.9264 10.1483 20.9708 9.97814C21.0153 9.80794 21.0088 9.62844 20.9523 9.46185C20.8958 9.29525 20.7917 9.14887 20.6529 9.0408C20.5141 8.93273 20.3466 8.86772 20.1712 8.85379L15.0403 8.44527L12.82 3.53132C12.7492 3.37309 12.6341 3.23873 12.4886 3.14445C12.3431 3.05017 12.1735 3 12.0001 3C11.8267 3 11.657 3.05017 11.5115 3.14445C11.3661 3.23873 11.251 3.37309 11.1802 3.53132L8.95986 8.44527L3.82893 8.8529C3.65654 8.86655 3.49173 8.92957 3.35423 9.03442C3.21672 9.13927 3.11234 9.2815 3.05357 9.44411C2.9948 9.60671 2.98413 9.78281 3.02283 9.95132C3.06154 10.1198 3.14799 10.2736 3.27183 10.3943L7.06445 14.0899ZM9.63216 10.1972C9.79281 10.1846 9.94709 10.129 10.0788 10.0362C10.2106 9.94341 10.3149 9.81691 10.381 9.66994L12.0001 6.08773L13.6192 9.66994C13.6852 9.81691 13.7896 9.94341 13.9213 10.0362C14.0531 10.129 14.2073 10.1846 14.368 10.1972L17.9428 10.4807L14.9989 13.1298C14.7433 13.3601 14.6416 13.7147 14.7352 14.0458L15.8629 17.9915L12.5005 15.7501C12.3529 15.651 12.1792 15.5981 12.0014 15.5981C11.8237 15.5981 11.65 15.651 11.5024 15.7501L7.98875 18.0923L8.93376 14.0017C8.96841 13.8513 8.96376 13.6944 8.92025 13.5463C8.87675 13.3982 8.79586 13.2637 8.68536 13.1559L5.95114 10.4906L9.63216 10.1972Z" fill="#F47932"/>
<path d="M9.63216 10.1972C9.79281 10.1846 9.94709 10.129 10.0788 10.0362C10.2106 9.94341 10.3149 9.81691 10.381 9.66994L12.0001 6.08773L13.6192 9.66994C13.6852 9.81691 13.7896 9.94341 13.9213 10.0362C14.0531 10.129 14.2073 10.1846 14.368 10.1972L17.9428 10.4807L14.9989 13.1298C14.7433 13.3601 14.6416 13.7147 14.7352 14.0458L15.8629 17.9915L12.5005 15.7501C12.3529 15.651 12.1792 15.5981 12.0014 15.5981C11.8237 15.5981 11.65 15.651 11.5024 15.7501L7.98875 18.0923L8.93376 14.0017C8.96841 13.8513 8.96376 13.6944 8.92025 13.5463C8.87675 13.3982 8.79586 13.2637 8.68536 13.1559L5.95114 10.4906L9.63216 10.1972Z" fill="#F47932"/>
</svg>
