<svg width="71" height="71" viewBox="0 0 71 71" fill="none" xmlns="http://www.w3.org/2000/svg">
<circle cx="35.5" cy="35.5" r="35.5" fill="#97B14B"/>
<path d="M51.7047 23.5256L52.4439 23.0636H51.5722H20.4876H19.6159L20.3551 23.5256L35.8974 33.2395L36.0299 33.3223L36.1624 33.2395L51.7047 23.5256ZM51.5722 46.877H51.8222V46.627V27.1991V26.7481L51.4397 26.9871L36.0299 36.6182L20.6201 26.9871L20.2376 26.7481V27.1991V46.627V46.877H20.4876H51.5722ZM51.5722 19.678C53.5712 19.678 55.2078 21.3146 55.2078 23.3136V46.627C55.2078 48.626 53.5712 50.2626 51.5722 50.2626H20.4876C18.4886 50.2626 16.8521 48.626 16.8521 46.627V23.3136C16.8521 21.3146 18.4886 19.678 20.4876 19.678H51.5722Z" fill="white" stroke="white" stroke-width="0.5"/>
</svg>
