<svg width="71" height="71" viewBox="0 0 71 71" fill="none" xmlns="http://www.w3.org/2000/svg">
<circle cx="35.5" cy="35.5" r="35.5" fill="#97B14B"/>
<path d="M36.0298 23.3136C38.1669 23.3136 39.9154 25.0621 39.9154 27.1991C39.9154 29.3362 38.1669 31.0847 36.0298 31.0847C33.8928 31.0847 32.1443 29.3362 32.1443 27.1991C32.1443 25.0621 33.8928 23.3136 36.0298 23.3136ZM36.0298 42.7414C41.2754 42.7414 47.298 45.2476 47.6866 46.627H24.3731C24.82 45.2282 30.8037 42.7414 36.0298 42.7414ZM36.0298 19.428C31.7363 19.428 28.2587 22.9056 28.2587 27.1991C28.2587 31.4927 31.7363 34.9703 36.0298 34.9703C40.3234 34.9703 43.801 31.4927 43.801 27.1991C43.801 22.9056 40.3234 19.428 36.0298 19.428ZM36.0298 38.8558C30.8426 38.8558 20.4875 41.4592 20.4875 46.627V50.5126H51.5721V46.627C51.5721 41.4592 41.2171 38.8558 36.0298 38.8558Z" fill="white"/>
</svg>
