<svg width="71" height="71" viewBox="0 0 71 71" fill="none" xmlns="http://www.w3.org/2000/svg">
<circle cx="35.5" cy="35.5" r="35.5" fill="#97B14B"/>
<path d="M39.07 25.1014V25.1016C39.07 25.6232 39.0138 26.1304 38.9063 26.6191C38.5669 26.6867 38.2298 26.7646 37.8956 26.8527C38.0258 26.4166 38.1077 25.9643 38.1377 25.5038C38.2334 24.0353 37.795 22.5818 36.9033 21.4111C36.0116 20.2405 34.7267 19.4316 33.2856 19.1337C31.8445 18.8358 30.3443 19.0689 29.0615 19.7901C27.7787 20.5113 26.7999 21.6719 26.3055 23.0579C25.8111 24.444 25.8345 25.962 26.3713 27.3322C26.908 28.7024 27.9221 29.8324 29.2264 30.5138C29.6317 30.7255 30.0565 30.8895 30.4925 31.0047C30.245 31.2408 30.0046 31.4845 29.7715 31.7353C28.7212 31.3742 27.7688 30.7678 26.9951 29.9632C26.0842 29.0158 25.4576 27.8317 25.1868 26.5457C24.916 25.2596 25.0117 23.9234 25.4632 22.6892C25.9147 21.4549 26.7037 20.3723 27.7404 19.5645C28.7771 18.7568 30.0198 18.2564 31.327 18.1204C32.6342 17.9844 33.9533 18.2183 35.1341 18.7953C36.3148 19.3724 37.3098 20.2694 38.0057 21.3843C38.7015 22.4992 39.0703 23.7871 39.07 25.1014ZM27.5879 51.9711C21.6922 50.4486 18.4851 45.9973 18.4851 41.8581V40.401C18.4851 39.5069 18.8403 38.6494 19.4725 38.0172C20.1048 37.385 20.9623 37.0298 21.8564 37.0298H26.4251C26.3057 37.3305 26.1948 37.6353 26.0924 37.944H21.8564C21.2047 37.944 20.5797 38.2028 20.119 38.6636C19.6582 39.1244 19.3993 39.7494 19.3993 40.401V41.8581C19.3993 45.5704 22.1887 49.2981 26.9779 50.8456C27.1672 51.2285 27.3707 51.6039 27.5879 51.9711ZM41.6748 36.9061C41.8289 36.752 42.0378 36.6655 42.2556 36.6655C42.4735 36.6655 42.6824 36.752 42.8364 36.9061C42.9905 37.0601 43.077 37.269 43.077 37.4869C43.077 37.7047 42.9905 37.9136 42.8364 38.0677C42.6824 38.2217 42.4735 38.3082 42.2556 38.3082C42.0378 38.3082 41.8289 38.2217 41.6748 38.0677C41.5208 37.9136 41.4343 37.7047 41.4343 37.4869C41.4343 37.269 41.5208 37.0601 41.6748 36.9061ZM42.5788 49.4668C42.4931 49.5525 42.3769 49.6007 42.2556 49.6007C42.1344 49.6007 42.0181 49.5525 41.9324 49.4668C41.8467 49.3811 41.7985 49.2648 41.7985 49.1436V43.3152C41.7985 43.194 41.8467 43.0777 41.9324 42.992C42.0181 42.9063 42.1344 42.8581 42.2556 42.8581C42.3769 42.8581 42.4931 42.9063 42.5788 42.992C42.6646 43.0777 42.7127 43.194 42.7127 43.3152V49.1436C42.7127 49.2648 42.6646 49.3811 42.5788 49.4668ZM37.6199 32.1235C39.0896 31.5147 40.6648 31.2014 42.2556 31.2014C45.4684 31.2014 48.5496 32.4777 50.8214 34.7495C53.0932 37.0212 54.3694 40.1024 54.3694 43.3152C54.3694 46.528 53.0932 49.6092 50.8214 51.881C48.5496 54.1528 45.4684 55.429 42.2556 55.429C40.6648 55.429 39.0896 55.1157 37.6199 54.5069C36.1502 53.8981 34.8147 53.0058 33.6899 51.881C32.565 50.7561 31.6727 49.4207 31.0639 47.951C30.4552 46.4813 30.1418 44.906 30.1418 43.3152C30.1418 41.7244 30.4552 40.1492 31.0639 38.6795C31.6727 37.2098 32.565 35.8743 33.6899 34.7495C34.8147 33.6246 36.1502 32.7323 37.6199 32.1235ZM50.175 35.3959C48.0746 33.2955 45.226 32.1156 42.2556 32.1156C39.2853 32.1156 36.4366 33.2955 34.3363 35.3959C32.236 37.4962 31.056 40.3449 31.056 43.3152C31.056 46.2855 32.236 49.1342 34.3363 51.2346C36.4366 53.3349 39.2853 54.5148 42.2556 54.5148C45.226 54.5148 48.0746 53.3349 50.175 51.2346C52.2753 49.1342 53.4553 46.2855 53.4553 43.3152C53.4553 40.3449 52.2753 37.4962 50.175 35.3959Z" fill="white" stroke="white" stroke-width="2"/>
</svg>
