<svg width="28" height="26" viewBox="0 0 28 26" fill="none" xmlns="http://www.w3.org/2000/svg">
<path fill-rule="evenodd" clip-rule="evenodd" d="M14 3.41567C13.3278 2.50731 12.4642 1.77198 11.4759 1.26645C10.4876 0.76091 9.40103 0.498683 8.3 0.500005C4.022 0.500005 0.5 4.1688 0.5 8.62511C0.5 10.9158 1.409 13.0314 2.7395 14.4174L12.9395 25.0425C13.2208 25.3354 13.6023 25.5 14 25.5C14.3977 25.5 14.7792 25.3354 15.0605 25.0425L25.2605 14.4174C25.2843 14.3927 25.3073 14.3671 25.3295 14.3408C26.555 12.8814 27.5 10.9689 27.5 8.62511C27.5 4.1688 23.978 0.500005 19.7 0.500005C17.3795 0.500005 15.317 1.64065 14 3.41567Z" fill="#F47932"/>
</svg>
