<svg width="20" height="20" viewBox="0 0 20 20" fill="none" xmlns="http://www.w3.org/2000/svg">
<path fill-rule="evenodd" clip-rule="evenodd" d="M4.16667 1.6665C3.72464 1.6665 3.30072 1.8421 2.98816 2.15466C2.67559 2.46722 2.5 2.89114 2.5 3.33317V17.4165C2.5 17.5369 2.52371 17.6561 2.56978 17.7673C2.61584 17.8785 2.68337 17.9796 2.76849 18.0647C2.85361 18.1498 2.95466 18.2173 3.06587 18.2634C3.17709 18.3095 3.29629 18.3332 3.41667 18.3332H16.5833C16.7037 18.3332 16.8229 18.3095 16.9341 18.2634C17.0453 18.2173 17.1464 18.1498 17.2315 18.0647C17.3166 17.9796 17.3842 17.8785 17.4302 17.7673C17.4763 17.6561 17.5 17.5369 17.5 17.4165V9.1665C17.5 8.72448 17.3244 8.30055 17.0118 7.98799C16.6993 7.67543 16.2754 7.49984 15.8333 7.49984H15.4167C15.3062 7.49984 15.2002 7.54374 15.122 7.62188C15.0439 7.70002 15 7.806 15 7.9165V16.6665H14.1667V3.33317C14.1667 2.89114 13.9911 2.46722 13.6785 2.15466C13.3659 1.8421 12.942 1.6665 12.5 1.6665H4.16667ZM8.33333 4.1665C8.11232 4.1665 7.90036 4.2543 7.74408 4.41058C7.5878 4.56686 7.5 4.77882 7.5 4.99984V5.83317H6.66667C6.44565 5.83317 6.23369 5.92097 6.07741 6.07725C5.92113 6.23353 5.83333 6.44549 5.83333 6.6665C5.83333 6.88752 5.92113 7.09948 6.07741 7.25576C6.23369 7.41204 6.44565 7.49984 6.66667 7.49984H7.5V8.33317C7.5 8.55418 7.5878 8.76615 7.74408 8.92243C7.90036 9.07871 8.11232 9.1665 8.33333 9.1665C8.55435 9.1665 8.76631 9.07871 8.92259 8.92243C9.07887 8.76615 9.16667 8.55418 9.16667 8.33317V7.49984H10C10.221 7.49984 10.433 7.41204 10.5893 7.25576C10.7455 7.09948 10.8333 6.88752 10.8333 6.6665C10.8333 6.44549 10.7455 6.23353 10.5893 6.07725C10.433 5.92097 10.221 5.83317 10 5.83317H9.16667V4.99984C9.16667 4.77882 9.07887 4.56686 8.92259 4.41058C8.76631 4.2543 8.55435 4.1665 8.33333 4.1665ZM8.33333 11.6665C7.89131 11.6665 7.46738 11.8421 7.15482 12.1547C6.84226 12.4672 6.66667 12.8911 6.66667 13.3332V16.6665H10V13.3332C10 12.8911 9.8244 12.4672 9.51184 12.1547C9.19928 11.8421 8.77536 11.6665 8.33333 11.6665Z" fill="#F47932"/>
</svg>
