<svg width="91" height="18" viewBox="0 0 91 18" fill="none" xmlns="http://www.w3.org/2000/svg">
<path d="M6.92578 9.13672C6.95703 9.16016 7.04688 9.17188 7.19531 9.17188C7.34375 9.17188 7.45703 9.11328 7.53516 8.99609C7.61328 8.87891 7.65234 8.6875 7.65234 8.42188V7.53125C7.65234 7.25 7.61719 7.05078 7.54688 6.93359C7.48438 6.80859 7.375 6.74609 7.21875 6.74609C7.07031 6.74609 6.96875 6.76172 6.91406 6.79297C6.92188 6.83203 6.92578 6.89844 6.92578 6.99219V9.13672ZM7.21875 14.4336V16.2266C6.875 16.5156 6.39062 16.7539 5.76562 16.9414C5.14062 17.1211 4.48828 17.2109 3.80859 17.2109C2.83984 17.2109 2.04688 17.0234 1.42969 16.6484C0.726562 16.2188 0.375 15.5977 0.375 14.7852V3.65234C0.375 3.40234 0.542969 3.15234 0.878906 2.90234C1.22266 2.65234 1.69531 2.42578 2.29688 2.22266C3.58594 1.78516 5.05859 1.56641 6.71484 1.56641C9.00391 1.56641 10.8281 2.13672 12.1875 3.27734C13.5469 4.41797 14.2266 5.95312 14.2266 7.88281C14.2266 9.80469 13.6133 11.3008 12.3867 12.3711C11.207 13.3867 9.57031 13.8945 7.47656 13.8945C7 13.8945 6.48828 13.8398 5.94141 13.7305C5.40234 13.6133 5.03906 13.5117 4.85156 13.4258C4.78906 13.4883 4.75781 13.5742 4.75781 13.6836C4.75781 14.082 5.57812 14.332 7.21875 14.4336ZM21.5742 17.3633C19.4102 17.3633 17.7031 16.7617 16.4531 15.5586C15.1719 14.3477 14.5312 12.6914 14.5312 10.5898C14.5312 8.48047 15.1914 6.80859 16.5117 5.57422C17.7305 4.42578 19.2734 3.85156 21.1406 3.85156C23.0078 3.85156 24.5039 4.36719 25.6289 5.39844C26.7617 6.42188 27.3281 7.68359 27.3281 9.18359C27.3281 10.5195 26.8633 11.5273 25.9336 12.207C25.0742 12.8477 23.9023 13.168 22.418 13.168C21.3086 13.168 20.3711 12.9375 19.6055 12.4766C19.543 12.5234 19.5117 12.6094 19.5117 12.7344C19.5117 12.9688 19.8203 13.1836 20.4375 13.3789C21.0547 13.5898 21.7539 13.6953 22.5352 13.6953C23.3242 13.6953 24.0391 13.5977 24.6797 13.4023C25.3281 13.1992 25.8477 12.9609 26.2383 12.6875C26.4258 12.8516 26.5742 13.1562 26.6836 13.6016C26.8008 14.0391 26.8594 14.4414 26.8594 14.8086C26.8594 15.168 26.8242 15.4883 26.7539 15.7695C26.1445 16.2852 25.5195 16.6523 24.8789 16.8711C23.9727 17.1992 22.8711 17.3633 21.5742 17.3633ZM21.4219 9.42969C21.8125 9.42969 22.0078 9.28125 22.0078 8.98438C22.0078 8.70312 21.8008 8.5625 21.3867 8.5625C20.9727 8.5625 20.7344 8.78516 20.6719 9.23047C20.8906 9.36328 21.1406 9.42969 21.4219 9.42969ZM29.0625 9.59375H29.7891C30.1797 9.59375 30.375 9.46484 30.375 9.20703C30.375 9.17578 30.3672 9.12891 30.3516 9.06641H27.7266C27.5547 8.51953 27.4688 7.91016 27.4688 7.23828C27.4688 6.55859 27.5195 6.00781 27.6211 5.58594C28.0664 5.30469 28.6797 4.875 29.4609 4.29688C29.6797 3.76562 29.9648 2.92188 30.3164 1.76562C30.3633 1.60938 30.418 1.45703 30.4805 1.30859C31.0898 1.15234 31.7852 1.07422 32.5664 1.07422C33.3477 1.07422 34.1172 1.15625 34.875 1.32031V4.19141H36.9023C37.3555 4.87891 37.582 5.6875 37.582 6.61719C37.582 7.03906 37.5234 7.47266 37.4062 7.91797C37.2891 8.36328 37.1211 8.74219 36.9023 9.05469H35.2266V10.8242C35.2266 11.8242 35.6445 12.3242 36.4805 12.3242H36.9844C37.1484 12.918 37.2305 13.4336 37.2305 13.8711C37.2305 14.9492 36.8906 15.7773 36.2109 16.3555C35.5391 16.9258 34.5586 17.2109 33.2695 17.2109C31.9883 17.2109 30.9648 16.8555 30.1992 16.1445C29.4414 15.4258 29.0625 14.3711 29.0625 12.9805V9.59375ZM40.8281 17.0117C39.9609 17.0117 39.2891 16.7812 38.8125 16.3203C38.3438 15.8594 38.1094 15.1641 38.1094 14.2344V2.77344C38.5234 2.42188 39.0273 2.15234 39.6211 1.96484C40.2227 1.76953 40.8438 1.67188 41.4844 1.67188C42.4297 1.67188 43.2305 1.90625 43.8867 2.375C44.5977 2.90625 44.9531 3.64062 44.9531 4.57812V10.9883C44.5156 11.0273 44.0859 11.1523 43.6641 11.3633C43.2422 11.5664 43.0312 11.7773 43.0312 11.9961C43.0312 12.1289 43.1055 12.2422 43.2539 12.3359C44.0273 11.6875 45.1758 11.3633 46.6992 11.3633H49.4766C49.9922 12.2695 50.25 13.1953 50.25 14.1406C50.25 14.6094 50.168 15.1289 50.0039 15.6992C49.8398 16.2695 49.6211 16.707 49.3477 17.0117H40.8281ZM62.4727 11.1992C62.4727 11.7617 62.5352 12.2148 62.6602 12.5586C62.7852 12.9023 63.0039 13.1719 63.3164 13.3672C63.3242 13.4062 63.3281 13.4805 63.3281 13.5898V13.8008C63.3281 14.9102 62.9922 15.7734 62.3203 16.3906C61.7266 16.9375 60.9922 17.2109 60.1172 17.2109C59.5234 17.2109 58.9805 17.0703 58.4883 16.7891C57.9961 16.5078 57.6445 16.1016 57.4336 15.5703C57.168 15.5703 57.0352 15.6992 57.0352 15.957C57.0352 16.1758 57.1719 16.4219 57.4453 16.6953C56.9375 17.0391 56.1719 17.2109 55.1484 17.2109C53.7031 17.2109 52.5469 16.8203 51.6797 16.0391C50.8203 15.25 50.3906 14.1523 50.3906 12.7461C50.3906 11.332 50.8477 10.2383 51.7617 9.46484C52.5977 8.76953 53.6797 8.42188 55.0078 8.42188C55.4609 8.42188 55.8984 8.45312 56.3203 8.51562C56.6016 8.57031 56.7539 8.60156 56.7773 8.60938C56.8008 8.53125 56.8125 8.46484 56.8125 8.41016C56.8125 8.20703 56.6406 8.07031 56.2969 8C55.9531 7.92969 55.5039 7.89453 54.9492 7.89453C53.7695 7.89453 52.7617 8.13281 51.9258 8.60938C51.543 7.96094 51.3516 7.14062 51.3516 6.14844C51.3516 5.58594 51.4219 5.16797 51.5625 4.89453C52.125 4.63672 52.8398 4.41016 53.707 4.21484C54.5742 4.01172 55.4883 3.91016 56.4492 3.91016C58.4336 3.91016 59.9336 4.34375 60.9492 5.21094C61.9648 6.07812 62.4727 7.30859 62.4727 8.90234V11.1992ZM56.3906 11.7734C56.0625 11.7734 55.8984 11.9219 55.8984 12.2188C55.8984 12.5 56.0898 12.6406 56.4727 12.6406C56.7383 12.6406 56.9336 12.5781 57.0586 12.4531C57.1836 12.3203 57.2461 12.0938 57.2461 11.7734C57.2461 11.7734 56.9609 11.7734 56.3906 11.7734ZM76.2188 11.1992C76.2188 11.7617 76.2812 12.2148 76.4062 12.5586C76.5312 12.9023 76.75 13.1719 77.0625 13.3672C77.0703 13.4062 77.0742 13.4805 77.0742 13.5898V13.8008C77.0742 14.8789 76.7617 15.7188 76.1367 16.3203C75.5195 16.9141 74.7188 17.2109 73.7344 17.2109C72.7578 17.2109 71.9648 16.9336 71.3555 16.3789C70.6445 15.7461 70.2891 14.7852 70.2891 13.4961C70.2891 12.9492 70.3125 12.4688 70.3594 12.0547C70.4141 11.6328 70.4492 11.332 70.4648 11.1523C70.4883 10.9727 70.5117 10.8047 70.5352 10.6484C70.5586 10.4922 70.5703 10.2617 70.5703 9.95703C70.5703 9.65234 70.5273 9.43359 70.4414 9.30078C70.3633 9.16797 70.25 9.10156 70.1016 9.10156C69.9609 9.10156 69.8359 9.13281 69.7266 9.19531L69.8789 11.1055C69.7383 11.8945 69.668 12.7305 69.668 13.6133C69.668 14.4961 69.8672 15.3008 70.2656 16.0273C69.5 16.8164 68.4258 17.2109 67.043 17.2109C66.2539 17.2109 65.5703 17.0039 64.9922 16.5898C64.3203 16.1211 63.9844 15.5 63.9844 14.7266V9.05469C63.5234 8.40625 63.293 7.60938 63.293 6.66406C63.293 5.71094 63.5234 4.88672 63.9844 4.19141H66.0703C66.625 4.19141 67.0977 4.39844 67.4883 4.8125C67.1445 5.13281 66.9727 5.39844 66.9727 5.60938C66.9727 5.85156 67.1094 5.97266 67.3828 5.97266C67.7266 5.37891 68.25 4.88672 68.9531 4.49609C69.6641 4.10547 70.4688 3.91016 71.3672 3.91016C72.7188 3.91016 73.8164 4.24219 74.6602 4.90625C75.7227 5.74219 76.2539 7.03906 76.2539 8.79688L76.2188 11.1992ZM84.0469 8.69141C83.9688 8.61328 83.875 8.57422 83.7656 8.57422C83.5938 8.57422 83.4766 8.69922 83.4141 8.94922C83.3516 9.19141 83.3203 9.6875 83.3203 10.4375V11.6328C83.3203 11.8438 83.3477 11.9922 83.4023 12.0781C83.457 12.1641 83.5469 12.207 83.6719 12.207C83.7969 12.207 83.8867 12.1797 83.9414 12.125V10.5547C83.9414 9.78906 83.9766 9.16797 84.0469 8.69141ZM83.2031 1.76562C83.6172 1.28125 84.0742 0.917969 84.5742 0.675781C85.0742 0.425781 85.7109 0.300781 86.4844 0.300781C87.4219 0.300781 88.1836 0.5625 88.7695 1.08594C89.3711 1.64844 89.6719 2.40625 89.6719 3.35938V11.0938C89.6719 12.2578 89.9531 13.0156 90.5156 13.3672C90.5234 13.4062 90.5273 13.4805 90.5273 13.5898V13.8008C90.5273 14.9102 90.1914 15.7734 89.5195 16.3906C88.9258 16.9375 88.1914 17.2109 87.3164 17.2109C86.707 17.2109 86.1797 17.082 85.7344 16.8242C85.2109 16.5273 84.8438 16.1211 84.6328 15.6055C84.3672 15.6055 84.2344 15.7344 84.2344 15.9922C84.2344 16.1094 84.2773 16.2461 84.3633 16.4023C84.457 16.5508 84.582 16.6836 84.7383 16.8008C84.2773 17.0742 83.6797 17.2109 82.9453 17.2109C81.9531 17.2109 81.0234 16.9844 80.1562 16.5312C79.2969 16.0703 78.6133 15.3789 78.1055 14.457C77.5195 13.4023 77.2266 12.125 77.2266 10.625C77.2266 8.625 77.7852 7.05469 78.9023 5.91406C80.0273 4.77344 81.4609 4.20312 83.2031 4.20312C84.2344 4.20312 85.1328 4.39844 85.8984 4.78906C85.9844 4.70312 86.0273 4.61328 86.0273 4.51953C86.0273 4.28516 85.75 4.08594 85.1953 3.92188C84.6406 3.75781 84.082 3.67578 83.5195 3.67578C83.5195 2.87891 83.4141 2.24219 83.2031 1.76562Z" fill="#F47932"/>
</svg>
