<svg width="121" height="24" viewBox="0 0 121 24" fill="none" xmlns="http://www.w3.org/2000/svg">
<path d="M8.73438 12.5156C8.77604 12.5469 8.89583 12.5625 9.09375 12.5625C9.29167 12.5625 9.44271 12.4844 9.54688 12.3281C9.65104 12.1719 9.70312 11.9167 9.70312 11.5625V10.375C9.70312 10 9.65625 9.73438 9.5625 9.57812C9.47917 9.41146 9.33333 9.32812 9.125 9.32812C8.92708 9.32812 8.79167 9.34896 8.71875 9.39062C8.72917 9.44271 8.73438 9.53125 8.73438 9.65625V12.5156ZM9.125 19.5781V21.9688C8.66667 22.3542 8.02083 22.6719 7.1875 22.9219C6.35417 23.1615 5.48438 23.2812 4.57812 23.2812C3.28646 23.2812 2.22917 23.0312 1.40625 22.5312C0.46875 21.9583 0 21.1302 0 20.0469V5.20312C0 4.86979 0.223958 4.53646 0.671875 4.20312C1.13021 3.86979 1.76042 3.56771 2.5625 3.29688C4.28125 2.71354 6.24479 2.42188 8.45312 2.42188C11.5052 2.42188 13.9375 3.18229 15.75 4.70312C17.5625 6.22396 18.4688 8.27083 18.4688 10.8438C18.4688 13.4062 17.651 15.401 16.0156 16.8281C14.4427 18.1823 12.2604 18.8594 9.46875 18.8594C8.83333 18.8594 8.15104 18.7865 7.42188 18.6406C6.70312 18.4844 6.21875 18.349 5.96875 18.2344C5.88542 18.3177 5.84375 18.4323 5.84375 18.5781C5.84375 19.1094 6.9375 19.4427 9.125 19.5781ZM28.2656 23.4844C25.3802 23.4844 23.1042 22.6823 21.4375 21.0781C19.7292 19.4635 18.875 17.2552 18.875 14.4531C18.875 11.6406 19.7552 9.41146 21.5156 7.76562C23.1406 6.23438 25.1979 5.46875 27.6875 5.46875C30.1771 5.46875 32.1719 6.15625 33.6719 7.53125C35.1823 8.89583 35.9375 10.5781 35.9375 12.5781C35.9375 14.3594 35.3177 15.7031 34.0781 16.6094C32.9323 17.4635 31.3698 17.8906 29.3906 17.8906C27.9115 17.8906 26.6615 17.5833 25.6406 16.9688C25.5573 17.0312 25.5156 17.1458 25.5156 17.3125C25.5156 17.625 25.9271 17.9115 26.75 18.1719C27.5729 18.4531 28.5052 18.5938 29.5469 18.5938C30.599 18.5938 31.5521 18.4635 32.4062 18.2031C33.2708 17.9323 33.9635 17.6146 34.4844 17.25C34.7344 17.4688 34.9323 17.875 35.0781 18.4688C35.2344 19.0521 35.3125 19.5885 35.3125 20.0781C35.3125 20.5573 35.2656 20.9844 35.1719 21.3594C34.3594 22.0469 33.526 22.5365 32.6719 22.8281C31.4635 23.2656 29.9948 23.4844 28.2656 23.4844ZM28.0625 12.9062C28.5833 12.9062 28.8438 12.7083 28.8438 12.3125C28.8438 11.9375 28.5677 11.75 28.0156 11.75C27.4635 11.75 27.1458 12.0469 27.0625 12.6406C27.3542 12.8177 27.6875 12.9062 28.0625 12.9062ZM38.25 13.125H39.2188C39.7396 13.125 40 12.9531 40 12.6094C40 12.5677 39.9896 12.5052 39.9688 12.4219H36.4688C36.2396 11.6927 36.125 10.8802 36.125 9.98438C36.125 9.07812 36.1927 8.34375 36.3281 7.78125C36.9219 7.40625 37.7396 6.83333 38.7812 6.0625C39.0729 5.35417 39.4531 4.22917 39.9219 2.6875C39.9844 2.47917 40.0573 2.27604 40.1406 2.07812C40.9531 1.86979 41.8802 1.76562 42.9219 1.76562C43.9635 1.76562 44.9896 1.875 46 2.09375V5.92188H48.7031C49.3073 6.83854 49.6094 7.91667 49.6094 9.15625C49.6094 9.71875 49.5312 10.2969 49.375 10.8906C49.2188 11.4844 48.9948 11.9896 48.7031 12.4062H46.4688V14.7656C46.4688 16.099 47.026 16.7656 48.1406 16.7656H48.8125C49.0312 17.5573 49.1406 18.2448 49.1406 18.8281C49.1406 20.2656 48.6875 21.3698 47.7812 22.1406C46.8854 22.901 45.5781 23.2812 43.8594 23.2812C42.151 23.2812 40.7865 22.8073 39.7656 21.8594C38.7552 20.901 38.25 19.4948 38.25 17.6406V13.125ZM53.9375 23.0156C52.7812 23.0156 51.8854 22.7083 51.25 22.0938C50.625 21.4792 50.3125 20.5521 50.3125 19.3125V4.03125C50.8646 3.5625 51.5365 3.20312 52.3281 2.95312C53.1302 2.69271 53.9583 2.5625 54.8125 2.5625C56.0729 2.5625 57.1406 2.875 58.0156 3.5C58.9635 4.20833 59.4375 5.1875 59.4375 6.4375V14.9844C58.8542 15.0365 58.2812 15.2031 57.7188 15.4844C57.1562 15.7552 56.875 16.0365 56.875 16.3281C56.875 16.5052 56.974 16.6562 57.1719 16.7812C58.2031 15.9167 59.7344 15.4844 61.7656 15.4844H65.4688C66.1562 16.6927 66.5 17.9271 66.5 19.1875C66.5 19.8125 66.3906 20.5052 66.1719 21.2656C65.9531 22.026 65.6615 22.6094 65.2969 23.0156H53.9375ZM82.7969 15.2656C82.7969 16.0156 82.8802 16.6198 83.0469 17.0781C83.2135 17.5365 83.5052 17.8958 83.9219 18.1562C83.9323 18.2083 83.9375 18.3073 83.9375 18.4531V18.7344C83.9375 20.2135 83.4896 21.3646 82.5938 22.1875C81.8021 22.9167 80.8229 23.2812 79.6562 23.2812C78.8646 23.2812 78.1406 23.0938 77.4844 22.7188C76.8281 22.3438 76.3594 21.8021 76.0781 21.0938C75.724 21.0938 75.5469 21.2656 75.5469 21.6094C75.5469 21.901 75.7292 22.2292 76.0938 22.5938C75.4167 23.0521 74.3958 23.2812 73.0312 23.2812C71.1042 23.2812 69.5625 22.7604 68.4062 21.7188C67.2604 20.6667 66.6875 19.2031 66.6875 17.3281C66.6875 15.4427 67.2969 13.9844 68.5156 12.9531C69.6302 12.026 71.0729 11.5625 72.8438 11.5625C73.4479 11.5625 74.0312 11.6042 74.5938 11.6875C74.9688 11.7604 75.1719 11.8021 75.2031 11.8125C75.2344 11.7083 75.25 11.6198 75.25 11.5469C75.25 11.276 75.0208 11.0938 74.5625 11C74.1042 10.9062 73.5052 10.8594 72.7656 10.8594C71.1927 10.8594 69.849 11.1771 68.7344 11.8125C68.224 10.9479 67.9688 9.85417 67.9688 8.53125C67.9688 7.78125 68.0625 7.22396 68.25 6.85938C69 6.51562 69.9531 6.21354 71.1094 5.95312C72.2656 5.68229 73.4844 5.54688 74.7656 5.54688C77.4115 5.54688 79.4115 6.125 80.7656 7.28125C82.1198 8.4375 82.7969 10.0781 82.7969 12.2031V15.2656ZM74.6875 16.0312C74.25 16.0312 74.0312 16.2292 74.0312 16.625C74.0312 17 74.2865 17.1875 74.7969 17.1875C75.151 17.1875 75.4115 17.1042 75.5781 16.9375C75.7448 16.7604 75.8281 16.4583 75.8281 16.0312C75.8281 16.0312 75.4479 16.0312 74.6875 16.0312ZM101.125 15.2656C101.125 16.0156 101.208 16.6198 101.375 17.0781C101.542 17.5365 101.833 17.8958 102.25 18.1562C102.26 18.2083 102.266 18.3073 102.266 18.4531V18.7344C102.266 20.1719 101.849 21.2917 101.016 22.0938C100.193 22.8854 99.125 23.2812 97.8125 23.2812C96.5104 23.2812 95.4531 22.9115 94.6406 22.1719C93.6927 21.3281 93.2188 20.0469 93.2188 18.3281C93.2188 17.599 93.25 16.9583 93.3125 16.4062C93.3854 15.8438 93.4323 15.4427 93.4531 15.2031C93.4844 14.9635 93.5156 14.7396 93.5469 14.5312C93.5781 14.3229 93.5938 14.0156 93.5938 13.6094C93.5938 13.2031 93.5365 12.9115 93.4219 12.7344C93.3177 12.5573 93.1667 12.4688 92.9688 12.4688C92.7812 12.4688 92.6146 12.5104 92.4688 12.5938L92.6719 15.1406C92.4844 16.1927 92.3906 17.3073 92.3906 18.4844C92.3906 19.6615 92.6562 20.7344 93.1875 21.7031C92.1667 22.7552 90.7344 23.2812 88.8906 23.2812C87.8385 23.2812 86.9271 23.0052 86.1562 22.4531C85.2604 21.8281 84.8125 21 84.8125 19.9688V12.4062C84.1979 11.5417 83.8906 10.4792 83.8906 9.21875C83.8906 7.94792 84.1979 6.84896 84.8125 5.92188H87.5938C88.3333 5.92188 88.9635 6.19792 89.4844 6.75C89.026 7.17708 88.7969 7.53125 88.7969 7.8125C88.7969 8.13542 88.9792 8.29688 89.3438 8.29688C89.8021 7.50521 90.5 6.84896 91.4375 6.32812C92.3854 5.80729 93.4583 5.54688 94.6562 5.54688C96.4583 5.54688 97.9219 5.98958 99.0469 6.875C100.464 7.98958 101.172 9.71875 101.172 12.0625L101.125 15.2656ZM111.562 11.9219C111.458 11.8177 111.333 11.7656 111.188 11.7656C110.958 11.7656 110.802 11.9323 110.719 12.2656C110.635 12.5885 110.594 13.25 110.594 14.25V15.8438C110.594 16.125 110.63 16.3229 110.703 16.4375C110.776 16.5521 110.896 16.6094 111.062 16.6094C111.229 16.6094 111.349 16.5729 111.422 16.5V14.4062C111.422 13.3854 111.469 12.5573 111.562 11.9219ZM110.438 2.6875C110.99 2.04167 111.599 1.55729 112.266 1.23438C112.932 0.901042 113.781 0.734375 114.812 0.734375C116.062 0.734375 117.078 1.08333 117.859 1.78125C118.661 2.53125 119.062 3.54167 119.062 4.8125V15.125C119.062 16.6771 119.438 17.6875 120.188 18.1562C120.198 18.2083 120.203 18.3073 120.203 18.4531V18.7344C120.203 20.2135 119.755 21.3646 118.859 22.1875C118.068 22.9167 117.089 23.2812 115.922 23.2812C115.109 23.2812 114.406 23.1094 113.812 22.7656C113.115 22.3698 112.625 21.8281 112.344 21.1406C111.99 21.1406 111.812 21.3125 111.812 21.6562C111.812 21.8125 111.87 21.9948 111.984 22.2031C112.109 22.401 112.276 22.5781 112.484 22.7344C111.87 23.099 111.073 23.2812 110.094 23.2812C108.771 23.2812 107.531 22.9792 106.375 22.375C105.229 21.7604 104.318 20.8385 103.641 19.6094C102.859 18.2031 102.469 16.5 102.469 14.5C102.469 11.8333 103.214 9.73958 104.703 8.21875C106.203 6.69792 108.115 5.9375 110.438 5.9375C111.812 5.9375 113.01 6.19792 114.031 6.71875C114.146 6.60417 114.203 6.48438 114.203 6.35938C114.203 6.04688 113.833 5.78125 113.094 5.5625C112.354 5.34375 111.609 5.23438 110.859 5.23438C110.859 4.17188 110.719 3.32292 110.438 2.6875Z" fill="#F47932"/>
</svg>
