<svg width="18" height="19" viewBox="0 0 18 19" fill="none" xmlns="http://www.w3.org/2000/svg">
<path d="M9.03366 2.08333L6.94199 4.16667H11.1087L9.03366 2.08333ZM2.33366 5.83333V16.6667H15.667V5.83333H2.33366ZM9.00033 0L13.167 4.16667H15.667C16.109 4.16667 16.5329 4.34226 16.8455 4.65482C17.1581 4.96738 17.3337 5.39131 17.3337 5.83333V16.6667C17.3337 17.1087 17.1581 17.5326 16.8455 17.8452C16.5329 18.1577 16.109 18.3333 15.667 18.3333H2.33366C1.89163 18.3333 1.46771 18.1577 1.15515 17.8452C0.842587 17.5326 0.666992 17.1087 0.666992 16.6667V5.83333C0.666992 5.39131 0.842587 4.96738 1.15515 4.65482C1.46771 4.34226 1.89163 4.16667 2.33366 4.16667H4.83366L9.00033 0ZM4.83366 15V11.6667H9.00033V15H4.83366ZM10.667 14.1667V8.33333H14.0003V14.1667H10.667ZM4.00033 10V7.5H8.16699V10H4.00033Z" fill="#F47932"/>
</svg>
