<svg width="15" height="15" viewBox="0 0 15 15" fill="none" xmlns="http://www.w3.org/2000/svg">
<path fill-rule="evenodd" clip-rule="evenodd" d="M7.5 1.7494C7.12656 1.20438 6.64679 0.763189 6.09774 0.459867C5.54868 0.156546 4.94501 -0.000789952 4.33333 2.9823e-06C1.95667 2.9823e-06 0 2.20128 0 4.87507C0 6.24946 0.505 7.51885 1.24417 8.35042L6.91083 14.7255C7.06711 14.9013 7.27903 15 7.5 15C7.72097 15 7.93289 14.9013 8.08917 14.7255L13.7558 8.35042C13.7691 8.3356 13.7819 8.32028 13.7942 8.30449C14.475 7.42885 15 6.28134 15 4.87507C15 2.20128 13.0433 2.9823e-06 10.6667 2.9823e-06C9.3775 2.9823e-06 8.23167 0.684387 7.5 1.7494Z" fill="#F47932"/>
</svg>
