<svg width="18" height="18" viewBox="0 0 18 18" fill="none" xmlns="http://www.w3.org/2000/svg">
<path d="M9.00033 13.1665C9.23644 13.1665 9.43449 13.0865 9.59449 12.9265C9.75394 12.7671 9.83366 12.5693 9.83366 12.3332V9.83317H12.3545C12.5906 9.83317 12.785 9.75317 12.9378 9.59317C13.0906 9.43373 13.167 9.23595 13.167 8.99984C13.167 8.76373 13.087 8.56567 12.927 8.40567C12.7675 8.24623 12.5698 8.1665 12.3337 8.1665H9.83366V5.64567C9.83366 5.40956 9.75394 5.21512 9.59449 5.06234C9.43449 4.90956 9.23644 4.83317 9.00033 4.83317C8.76421 4.83317 8.56644 4.91289 8.40699 5.07234C8.24699 5.23234 8.16699 5.43039 8.16699 5.6665V8.1665H5.64616C5.41005 8.1665 5.2156 8.24623 5.06283 8.40567C4.91005 8.56567 4.83366 8.76373 4.83366 8.99984C4.83366 9.23595 4.91338 9.43373 5.07283 9.59317C5.23283 9.75317 5.43088 9.83317 5.66699 9.83317H8.16699V12.354C8.16699 12.5901 8.24699 12.7846 8.40699 12.9373C8.56644 13.0901 8.76421 13.1665 9.00033 13.1665ZM9.00033 17.3332C7.84755 17.3332 6.76421 17.1143 5.75033 16.6765C4.73644 16.2393 3.85449 15.6457 3.10449 14.8957C2.35449 14.1457 1.76088 13.2637 1.32366 12.2498C0.885881 11.2359 0.666992 10.1526 0.666992 8.99984C0.666992 7.84706 0.885881 6.76373 1.32366 5.74984C1.76088 4.73595 2.35449 3.854 3.10449 3.104C3.85449 2.354 4.73644 1.76011 5.75033 1.32234C6.76421 0.885115 7.84755 0.666504 9.00033 0.666504C10.1531 0.666504 11.2364 0.885115 12.2503 1.32234C13.2642 1.76011 14.1462 2.354 14.8962 3.104C15.6462 3.854 16.2398 4.73595 16.677 5.74984C17.1148 6.76373 17.3337 7.84706 17.3337 8.99984C17.3337 10.1526 17.1148 11.2359 16.677 12.2498C16.2398 13.2637 15.6462 14.1457 14.8962 14.8957C14.1462 15.6457 13.2642 16.2393 12.2503 16.6765C11.2364 17.1143 10.1531 17.3332 9.00033 17.3332Z" fill="#F47932"/>
</svg>
