<svg width="15" height="15" viewBox="0 0 15 15" fill="none" xmlns="http://www.w3.org/2000/svg">
<path d="M6.17578 13.9446C6.21992 14.237 6.37802 14.505 6.62089 14.6989C6.86376 14.8928 7.17499 14.9997 7.49709 14.9997C7.81919 14.9997 8.13042 14.8928 8.37329 14.6989C8.61616 14.505 8.77426 14.237 8.8184 13.9446H6.17578Z" fill="#F47932"/>
<path d="M15 12.1595L14.8289 12.0211C14.3433 11.6246 13.9184 11.1699 13.5654 10.6692C13.18 9.97836 12.9489 9.22387 12.8859 8.45004V6.17086C12.8892 4.95543 12.4082 3.78071 11.5333 2.86742C10.6583 1.95413 9.44958 1.36514 8.13423 1.2111V0.615933C8.13423 0.452577 8.06343 0.295912 7.93741 0.180403C7.81139 0.0648928 7.64047 0 7.46225 0C7.28403 0 7.11311 0.0648928 6.98709 0.180403C6.86107 0.295912 6.79027 0.452577 6.79027 0.615933V1.22033C5.48671 1.38547 4.2926 1.97802 3.42913 2.88824C2.56565 3.79846 2.09131 4.96467 2.09396 6.17086V8.45004C2.03092 9.22387 1.79989 9.97836 1.41443 10.6692C1.06756 11.1686 0.649427 11.6232 0.171141 12.0211L0 12.1595V13.4606H15V12.1595Z" fill="#F47932"/>
</svg>
