<svg width="14" height="14" viewBox="0 0 14 14" fill="none" xmlns="http://www.w3.org/2000/svg">
<path d="M6.99967 6.99992C6.08301 6.99992 5.29829 6.67353 4.64551 6.02075C3.99273 5.36797 3.66634 4.58325 3.66634 3.66659C3.66634 2.74992 3.99273 1.9652 4.64551 1.31242C5.29829 0.659641 6.08301 0.333252 6.99967 0.333252C7.91634 0.333252 8.70106 0.659641 9.35384 1.31242C10.0066 1.9652 10.333 2.74992 10.333 3.66659C10.333 4.58325 10.0066 5.36797 9.35384 6.02075C8.70106 6.67353 7.91634 6.99992 6.99967 6.99992ZM0.333008 13.6666V11.3333C0.333008 10.861 0.454675 10.4269 0.698008 10.0308C0.940786 9.6352 1.26356 9.33325 1.66634 9.12492C2.52745 8.69436 3.40245 8.37131 4.29134 8.15575C5.18023 7.94075 6.08301 7.83325 6.99967 7.83325C7.91634 7.83325 8.81912 7.94075 9.70801 8.15575C10.5969 8.37131 11.4719 8.69436 12.333 9.12492C12.7358 9.33325 13.0586 9.6352 13.3013 10.0308C13.5447 10.4269 13.6663 10.861 13.6663 11.3333V13.6666H0.333008Z" fill="#F47932"/>
</svg>
