<svg width="16" height="16" viewBox="0 0 16 16" fill="none" xmlns="http://www.w3.org/2000/svg">
<path d="M7.16667 12.1667H8.83333L9.08333 10.9167C9.25 10.8472 9.40639 10.7744 9.5525 10.6983C9.69806 10.6217 9.84722 10.5278 10 10.4167L11.2083 10.7917L12.0417 9.375L11.0833 8.54167C11.1111 8.34722 11.125 8.16667 11.125 8C11.125 7.83333 11.1111 7.65278 11.0833 7.45833L12.0417 6.625L11.2083 5.20833L10 5.58333C9.84722 5.47222 9.69806 5.37833 9.5525 5.30167C9.40639 5.22556 9.25 5.15278 9.08333 5.08333L8.83333 3.83333H7.16667L6.91667 5.08333C6.75 5.15278 6.59361 5.22556 6.4475 5.30167C6.30194 5.37833 6.15278 5.47222 6 5.58333L4.79167 5.20833L3.95833 6.625L4.91667 7.45833C4.88889 7.65278 4.875 7.83333 4.875 8C4.875 8.16667 4.88889 8.34722 4.91667 8.54167L3.95833 9.375L4.79167 10.7917L6 10.4167C6.15278 10.5278 6.30194 10.6217 6.4475 10.6983C6.59361 10.7744 6.75 10.8472 6.91667 10.9167L7.16667 12.1667ZM8 9.66667C7.54167 9.66667 7.14944 9.50333 6.82333 9.17667C6.49667 8.85056 6.33333 8.45833 6.33333 8C6.33333 7.54167 6.49667 7.14917 6.82333 6.8225C7.14944 6.49639 7.54167 6.33333 8 6.33333C8.45833 6.33333 8.85083 6.49639 9.1775 6.8225C9.50361 7.14917 9.66667 7.54167 9.66667 8C9.66667 8.45833 9.50361 8.85056 9.1775 9.17667C8.85083 9.50333 8.45833 9.66667 8 9.66667ZM2.16667 15.5C1.70833 15.5 1.31583 15.3369 0.989167 15.0108C0.663055 14.6842 0.5 14.2917 0.5 13.8333V2.16667C0.5 1.70833 0.663055 1.31583 0.989167 0.989167C1.31583 0.663055 1.70833 0.5 2.16667 0.5H13.8333C14.2917 0.5 14.6842 0.663055 15.0108 0.989167C15.3369 1.31583 15.5 1.70833 15.5 2.16667V13.8333C15.5 14.2917 15.3369 14.6842 15.0108 15.0108C14.6842 15.3369 14.2917 15.5 13.8333 15.5H2.16667Z" fill="#F47932"/>
</svg>
