<svg width="16" height="16" viewBox="0 0 16 16" fill="none" xmlns="http://www.w3.org/2000/svg">
<path d="M15.5391 8.66406L12.2578 11.9453C12.1705 12.0323 12.0669 12.1012 11.953 12.1481C11.8391 12.1951 11.717 12.2191 11.5938 12.2188C11.3452 12.2177 11.1069 12.1196 10.9297 11.9453C10.8423 11.8582 10.7729 11.7547 10.7256 11.6408C10.6783 11.5268 10.6539 11.4046 10.6539 11.2812C10.6539 11.1579 10.6783 11.0357 10.7256 10.9217C10.7729 10.8078 10.8423 10.7043 10.9297 10.6172L12.6094 8.9375H6.125C5.87636 8.9375 5.6379 8.83873 5.46209 8.66291C5.28627 8.4871 5.1875 8.24864 5.1875 8C5.1875 7.75136 5.28627 7.5129 5.46209 7.33709C5.6379 7.16127 5.87636 7.0625 6.125 7.0625H12.6094L10.9297 5.38281C10.7536 5.20669 10.6546 4.96782 10.6546 4.71875C10.6546 4.46968 10.7536 4.23081 10.9297 4.05469C11.1058 3.87857 11.3447 3.77962 11.5938 3.77962C11.8428 3.77962 12.0817 3.87857 12.2578 4.05469L15.5391 7.33594C15.6265 7.42303 15.6958 7.52653 15.7431 7.64048C15.7904 7.75444 15.8148 7.87661 15.8148 8C15.8148 8.12339 15.7904 8.24556 15.7431 8.35952C15.6958 8.47347 15.6265 8.57697 15.5391 8.66406ZM6.125 13.9375H2.0625V2.0625H6.125C6.37364 2.0625 6.6121 1.96373 6.78791 1.78791C6.96373 1.6121 7.0625 1.37364 7.0625 1.125C7.0625 0.87636 6.96373 0.637903 6.78791 0.462087C6.6121 0.286272 6.37364 0.1875 6.125 0.1875H1.75C1.33623 0.189553 0.939996 0.354833 0.647415 0.647415C0.354833 0.939996 0.189553 1.33623 0.1875 1.75V14.25C0.189553 14.6638 0.354833 15.06 0.647415 15.3526C0.939996 15.6452 1.33623 15.8104 1.75 15.8125H6.125C6.37364 15.8125 6.6121 15.7137 6.78791 15.5379C6.96373 15.3621 7.0625 15.1236 7.0625 14.875C7.0625 14.6264 6.96373 14.3879 6.78791 14.2121C6.6121 14.0363 6.37364 13.9375 6.125 13.9375Z" fill="#F47932"/>
</svg>
