<svg width="14" height="18" viewBox="0 0 14 18" fill="none" xmlns="http://www.w3.org/2000/svg">
<path d="M9.36634 12.5498C11.883 13.0248 13.6663 14.2415 13.6663 15.6665V17.3332H0.333008V15.6665C0.333008 14.2415 2.11634 13.0248 4.63301 12.5498L6.99967 16.4998L9.36634 12.5498ZM3.66634 5.66651H10.333V7.33318C10.333 8.21724 9.98182 9.06508 9.3567 9.6902C8.73158 10.3153 7.88373 10.6665 6.99967 10.6665C6.11562 10.6665 5.26777 10.3153 4.64265 9.6902C4.01753 9.06508 3.66634 8.21724 3.66634 7.33318V5.66651ZM3.66634 4.83318L4.00801 1.41651C4.02874 1.21025 4.1256 1.01911 4.27969 0.880426C4.43379 0.741744 4.63404 0.665475 4.84134 0.666514H9.16634C9.59134 0.666514 9.94967 0.991514 9.99134 1.41651L10.333 4.83318H3.66634ZM6.99967 1.49985H6.16634V2.33318H5.33301V3.16651H6.16634V3.99985H6.99967V3.16651H7.83301V2.33318H6.99967V1.49985Z" fill="#F47932"/>
</svg>
