<svg width="28" height="26" viewBox="0 0 28 26" fill="none" xmlns="http://www.w3.org/2000/svg">
<path d="M11.6172 23.7415C11.6966 24.2289 11.9812 24.6754 12.4184 24.9987C12.8555 25.3219 13.4158 25.4999 13.9955 25.4999C14.5753 25.4999 15.1355 25.3219 15.5727 24.9987C16.0099 24.6754 16.2944 24.2289 16.3739 23.7415H11.6172Z" fill="#F47932"/>
<path d="M27.5 20.7658L27.1919 20.5351C26.318 19.8743 25.5531 19.1164 24.9178 18.2821C24.224 17.1306 23.8081 15.8731 23.6946 14.5834V10.7848C23.7006 8.75904 22.8348 6.80118 21.2599 5.27903C19.6849 3.75689 17.5092 2.77523 15.1416 2.51851V1.52655C15.1416 1.2543 15.0142 0.993187 14.7873 0.800671C14.5605 0.608155 14.2528 0.5 13.932 0.5C13.6113 0.5 13.3036 0.608155 13.0768 0.800671C12.8499 0.993187 12.7225 1.2543 12.7225 1.52655V2.53389C10.3761 2.80912 8.22669 3.79671 6.67243 5.31374C5.11817 6.83077 4.26435 8.77445 4.26913 10.7848V14.5834C4.15565 15.8731 3.7398 17.1306 3.04597 18.2821C2.4216 19.1144 1.66897 19.8721 0.808054 20.5351L0.5 20.7658V22.9343H27.5V20.7658Z" fill="#F47932"/>
</svg>
