<svg width="40" height="40" viewBox="0 0 40 40" fill="none" xmlns="http://www.w3.org/2000/svg">
<path d="M28.4615 18.4615C28.4615 20.1351 27.9653 21.771 27.0355 23.1625C26.1057 24.554 24.7842 25.6385 23.2381 26.279C21.692 26.9194 19.9906 27.087 18.3492 26.7605C16.7079 26.434 15.2002 25.6281 14.0168 24.4447C12.8334 23.2614 12.0275 21.7537 11.7011 20.1123C11.3746 18.4709 11.5421 16.7696 12.1826 15.2234C12.823 13.6773 13.9075 12.3558 15.299 11.426C16.6905 10.4963 18.3265 10 20 10C22.2441 10 24.3964 10.8915 25.9832 12.4783C27.5701 14.0652 28.4615 16.2174 28.4615 18.4615ZM40 20C40 23.9556 38.827 27.8224 36.6294 31.1114C34.4318 34.4004 31.3082 36.9638 27.6537 38.4776C23.9991 39.9913 19.9778 40.3874 16.0982 39.6157C12.2186 38.844 8.65492 36.9392 5.85787 34.1421C3.06082 31.3451 1.15601 27.7814 0.384303 23.9018C-0.387401 20.0222 0.00866569 16.0008 1.52242 12.3463C3.03617 8.69181 5.59962 5.56823 8.8886 3.37061C12.1776 1.17298 16.0444 0 20 0C25.3012 0.0101653 30.3824 2.12057 34.1309 5.86909C37.8794 9.61762 39.9898 14.6988 40 20ZM36.9231 20C36.9241 17.2591 36.2594 14.559 34.986 12.1318C33.7127 9.70467 31.8689 7.62311 29.6132 6.06615C27.3574 4.50919 24.7573 3.52343 22.0363 3.19363C19.3153 2.86382 16.555 3.19986 13.9926 4.17283C11.4302 5.1458 9.14249 6.72659 7.32618 8.77926C5.50987 10.8319 4.21931 13.2951 3.56548 15.9568C2.91165 18.6186 2.91413 21.3993 3.57269 24.0599C4.23125 26.7205 5.5262 29.1813 7.34616 31.2308C8.59151 29.4444 10.1963 27.9378 12.0577 26.8077C14.1949 28.8552 17.0403 29.9982 20 29.9982C22.9597 29.9982 25.8051 28.8552 27.9423 26.8077C29.8037 27.9378 31.4085 29.4444 32.6538 31.2308C35.4089 28.1391 36.9287 24.1411 36.9231 20Z" fill="#F47932"/>
</svg>
