<svg width="30" height="34" viewBox="0 0 30 34" xmlns="http://www.w3.org/2000/svg">
<path
        d="M2.5 33.358C2.5 33.358 0 33.358 0 30.5782C0 27.7984 2.5 19.4589 15 19.4589C27.5 19.4589 30 27.7984 30 30.5782C30 33.358 27.5 33.358 27.5 33.358H2.5ZM15 16.679C16.9891 16.679 18.8968 15.8004 20.3033 14.2364C21.7098 12.6725 22.5 10.5513 22.5 8.33951C22.5 6.12774 21.7098 4.00655 20.3033 2.44259C18.8968 0.878625 16.9891 0 15 0C13.0109 0 11.1032 0.878625 9.6967 2.44259C8.29018 4.00655 7.5 6.12774 7.5 8.33951C7.5 10.5513 8.29018 12.6725 9.6967 14.2364C11.1032 15.8004 13.0109 16.679 15 16.679Z"
        fill="#F47932"
/>
</svg>
