<svg width="29" height="29" viewBox="0 0 29 29" fill="none" xmlns="http://www.w3.org/2000/svg">
<path d="M16.2039 14.5L21.3998 9.31625C21.6273 9.08872 21.7551 8.78011 21.7551 8.45833C21.7551 8.13655 21.6273 7.82795 21.3998 7.60042C21.1722 7.37288 20.8636 7.24506 20.5418 7.24506C20.2201 7.24506 19.9115 7.37288 19.6839 7.60042L14.5002 12.7963L9.31642 7.60042C9.08889 7.37288 8.78028 7.24506 8.4585 7.24506C8.13672 7.24506 7.82812 7.37288 7.60059 7.60042C7.37305 7.82795 7.24523 8.13655 7.24523 8.45833C7.24523 8.78011 7.37305 9.08872 7.60059 9.31625L12.7964 14.5L7.60059 19.6838C7.48733 19.7961 7.39744 19.9297 7.33609 20.077C7.27475 20.2242 7.24316 20.3822 7.24316 20.5417C7.24316 20.7012 7.27475 20.8591 7.33609 21.0064C7.39744 21.1536 7.48733 21.2873 7.60059 21.3996C7.71292 21.5128 7.84656 21.6027 7.99381 21.6641C8.14105 21.7254 8.29899 21.757 8.4585 21.757C8.61802 21.757 8.77595 21.7254 8.9232 21.6641C9.07045 21.6027 9.20409 21.5128 9.31642 21.3996L14.5002 16.2037L19.6839 21.3996C19.7963 21.5128 19.9299 21.6027 20.0771 21.6641C20.2244 21.7254 20.3823 21.757 20.5418 21.757C20.7014 21.757 20.8593 21.7254 21.0065 21.6641C21.1538 21.6027 21.2874 21.5128 21.3998 21.3996C21.513 21.2873 21.6029 21.1536 21.6642 21.0064C21.7256 20.8591 21.7572 20.7012 21.7572 20.5417C21.7572 20.3822 21.7256 20.2242 21.6642 20.077C21.6029 19.9297 21.513 19.7961 21.3998 19.6838L16.2039 14.5Z" fill="#4F4F4F"/>
</svg>
