<svg width="22" height="19" viewBox="0 0 22 19" fill="none" xmlns="http://www.w3.org/2000/svg">
<path d="M7.35003 0.999906C8.53003 0.829906 9.78003 2.11991 10.14 3.89991C10.5 5.66991 9.85003 7.24991 8.67003 7.42991C7.50003 7.60991 6.24003 6.31991 5.87003 4.53991C5.50003 2.76991 6.17003 1.18991 7.35003 0.999906ZM14.5 0.999906C15.69 1.18991 16.35 2.76991 16 4.53991C15.62 6.31991 14.37 7.60991 13.19 7.42991C12 7.24991 11.35 5.66991 11.72 3.89991C12.08 2.11991 13.33 0.829906 14.5 0.999906ZM2.00003 5.59991C3.14003 5.10991 4.69003 5.99991 5.50003 7.54991C6.26003 9.12991 6.00003 10.7899 4.87003 11.2799C3.74003 11.7699 2.20003 10.8899 1.41003 9.31991C0.620029 7.74991 0.900028 6.07991 2.00003 5.59991ZM20 5.59991C21.1 6.07991 21.38 7.74991 20.59 9.31991C19.8 10.8899 18.26 11.7699 17.13 11.2799C16 10.7899 15.74 9.12991 16.5 7.54991C17.31 5.99991 18.86 5.10991 20 5.59991ZM18.33 16.3799C18.37 17.3199 17.65 18.3599 16.79 18.7499C15 19.5699 12.88 17.8699 10.89 17.8699C8.90003 17.8699 6.76003 19.6399 5.00003 18.7499C4.00003 18.2599 3.31003 16.9599 3.44003 15.8799C3.62003 14.3899 5.41003 13.5899 6.47003 12.4999C7.88003 11.0899 8.88003 8.43991 10.89 8.43991C12.89 8.43991 13.95 11.0499 15.3 12.4999C16.41 13.7199 18.26 14.7499 18.33 16.3799Z" fill="#AEB9CC"/>
</svg>
