<svg width="60" height="60" viewBox="0 0 60 60" fill="none" xmlns="http://www.w3.org/2000/svg">
<path d="M60 30.0089C60.0032 25.0164 58.7596 20.1022 56.3819 15.7118C54.0042 11.3215 50.5677 7.59399 46.3841 4.86743C42.2005 2.14088 37.4021 0.50153 32.4243 0.0980885C27.4465 -0.305353 22.4466 0.539877 17.8783 2.55711C13.3099 4.57435 9.31765 7.69976 6.26352 11.6499C3.2094 15.6 1.19008 20.2498 0.388725 25.1775C-0.412631 30.1053 0.0293331 35.1551 1.67453 39.8689C3.31972 44.5827 6.11609 48.8113 9.81 52.1712C9.88588 52.2658 9.97716 52.3469 10.08 52.4111C15.5691 57.2992 22.6638 60 30.015 60C37.3661 60 44.4609 57.2992 49.95 52.4111L50.19 52.1712C53.2835 49.3674 55.7548 45.9466 57.4445 42.1293C59.1342 38.312 60.0047 34.1831 60 30.0089ZM2.4 30.0089C2.39964 25.4741 3.51741 21.0092 5.65441 17.0092C7.79141 13.0091 10.8817 9.59732 14.652 7.07561C18.4222 4.5539 22.7561 3.00004 27.2702 2.55153C31.7843 2.10301 36.3393 2.77367 40.5323 4.50416C44.7254 6.23465 48.4271 8.97162 51.3099 12.4729C54.1928 15.9742 56.1678 20.1318 57.0604 24.5779C57.953 29.024 57.7356 33.6214 56.4273 37.9635C55.1191 42.3056 52.7604 46.2584 49.56 49.4721C46.5809 44.4831 41.8038 40.8237 36.21 39.2457C38.8078 37.8612 40.8681 35.6482 42.0633 32.9587C43.2584 30.2692 43.5199 27.2575 42.8061 24.4023C42.0923 21.5472 40.4442 19.0125 38.1238 17.2013C35.8034 15.3901 32.944 14.4063 30 14.4063C27.056 14.4063 24.1965 15.3901 21.8762 17.2013C19.5558 19.0125 17.9077 21.5472 17.1939 24.4023C16.4801 27.2575 16.7415 30.2692 17.9367 32.9587C19.1319 35.6482 21.1922 37.8612 23.79 39.2457C18.1961 40.8237 13.4191 44.4831 10.44 49.4721C5.29414 44.3002 2.40385 37.3034 2.4 30.0089ZM30 38.406C27.864 38.406 25.7759 37.7728 23.9998 36.5865C22.2238 35.4002 20.8395 33.714 20.0221 31.7413C19.2047 29.7685 18.9908 27.5977 19.4075 25.5035C19.8242 23.4092 20.8528 21.4855 22.3632 19.9756C23.8736 18.4657 25.798 17.4375 27.893 17.0209C29.988 16.6043 32.1595 16.8181 34.133 17.6353C36.1064 18.4524 37.7931 19.8362 38.9799 21.6116C40.1666 23.3871 40.8 25.4744 40.8 27.6097C40.8 30.4731 39.6621 33.2191 37.6367 35.2438C35.6113 37.2685 32.8643 38.406 30 38.406ZM12.27 51.1216C14.0518 47.9917 16.6309 45.3893 19.7451 43.579C22.8593 41.7687 26.3975 40.8151 30 40.8151C33.6024 40.8151 37.1407 41.7687 40.2549 43.579C43.3691 45.3893 45.9482 47.9917 47.73 51.1216C42.7686 55.3021 36.4887 57.5949 30 57.5949C23.5112 57.5949 17.2314 55.3021 12.27 51.1216Z" fill="white"/>
</svg>
